# xmcd
#
# Track frame offsets:
#	150
#	17925
#	36375
#	56925
#
# Disc length: 996 seconds
#
# Revision: 0
# Processed by: cddbd v1.4PL0 Copyright (c) Steve Scherf et al.
# Submitted via: EasyCDDAExtractor 5.0.5.1
#
DISCID=3603e204
DTITLE=Kuraki Mai - Make my day
DYEAR=2002
DGENRE=R&B
TTITLE0=Make my date
TTITLE1=I don't wanna lose you
TTITLE2=Make my day ~M-oZ mix~
TTITLE3=Make my date ~Instrumental~
EXTD=
EXTT0=
EXTT1=
EXTT2=
EXTT3=
PLAYORDER=
